HIERARCHY
ROOT Pelvis
{
	OFFSET 0.000000 0.941512 0.000000
	CHANNELS 6 Xposition Yposition Zposition Zrotation Yrotation Xrotation 
	JOINT Pelvis_L_Hip
	{
		OFFSET 0.000000 0.000000 0.000000
		CHANNELS 3 Zrotation Yrotation Xrotation
		JOINT L_Hip
		{
			OFFSET 0.062321 -0.080322 -0.016990
			CHANNELS 3 Zrotation Yrotation Xrotation
			JOINT L_Knee
			{
				OFFSET 0.093051 -0.381305 -0.029784
				CHANNELS 3 Zrotation Yrotation Xrotation
				JOINT L_Ankle
				{
					OFFSET -0.010371 -0.431000 -0.033614
					CHANNELS 3 Zrotation Yrotation Xrotation
					End Site #name: L_Foot
					{
						OFFSET 0.069299 -0.038670 0.119418
					}
				}
			}
		}
	}
	JOINT Pelvis_R_Hip
	{
		OFFSET 0.000000 0.000000 0.000000
		CHANNELS 3 Zrotation Yrotation Xrotation
		JOINT R_Hip
		{
			OFFSET -0.055334 -0.094904 -0.002373
			CHANNELS 3 Zrotation Yrotation Xrotation
			JOINT R_Knee
			{
				OFFSET -0.064207 -0.384370 -0.019592
				CHANNELS 3 Zrotation Yrotation Xrotation
				JOINT R_Ankle
				{
					OFFSET 0.025418 -0.419734 -0.065953
					CHANNELS 3 Zrotation Yrotation Xrotation
					End Site #name: R_Foot
					{
						OFFSET -0.057233 -0.039888 0.132134
					}
				}
			}
		}
	}
	JOINT Pelvis_Spine1
	{
		OFFSET 0.000000 0.000000 0.000000
		CHANNELS 3 Zrotation Yrotation Xrotation
		JOINT Spine1
		{
			OFFSET -0.005562 0.124093 -0.043360
			CHANNELS 3 Zrotation Yrotation Xrotation
			JOINT Spine2
			{
				OFFSET 0.012244 0.139499 0.029894
				CHANNELS 3 Zrotation Yrotation Xrotation
				JOINT Spine3
				{
					OFFSET -0.002556 0.056561 0.009225
					CHANNELS 3 Zrotation Yrotation Xrotation
					JOINT Spine3_Neck
					{
						OFFSET 0.000000 0.000000 0.000000
						CHANNELS 3 Zrotation Yrotation Xrotation
						JOINT Neck
						{
							OFFSET -0.005205 0.217920 -0.024551
							CHANNELS 3 Zrotation Yrotation Xrotation
							End Site #name: Head
							{
								OFFSET 0.002365 0.091850 0.046637
							}
						}
					}
					JOINT Spine3_L_Collar
					{
						OFFSET 0.000000 0.000000 0.000000
						CHANNELS 3 Zrotation Yrotation Xrotation
						JOINT L_Collar
						{
							OFFSET 0.072225 0.116603 -0.009480
							CHANNELS 3 Zrotation Yrotation Xrotation
							JOINT L_Shoulder
							{
								OFFSET 0.115937 -0.058643 -0.021018
								CHANNELS 3 Zrotation Yrotation Xrotation
								JOINT L_Elbow
								{
									OFFSET 0.021994 -0.254722 -0.024492
									CHANNELS 3 Zrotation Yrotation Xrotation
									End Site #name: L_Wrist
									{
										OFFSET 0.048810 -0.240214 0.103329
									}
								}
							}
						}
					}
					JOINT Spine3_R_Collar
					{
						OFFSET 0.000000 0.000000 0.000000
						CHANNELS 3 Zrotation Yrotation Xrotation
						JOINT R_Collar
						{
							OFFSET -0.073372 0.120704 -0.024611
							CHANNELS 3 Zrotation Yrotation Xrotation
							JOINT R_Shoulder
							{
								OFFSET -0.108089 -0.054969 -0.020504
								CHANNELS 3 Zrotation Yrotation Xrotation
								JOINT R_Elbow
								{
									OFFSET -0.033684 -0.260739 0.009889
									CHANNELS 3 Zrotation Yrotation Xrotation
									End Site #name: R_Wrist
									{
										OFFSET -0.067980 -0.232763 0.118463
									}
								}
							}
						}
					}
				}
			}
		}
	}
}
MOTION
Frames: 16
Frame Time: 0.041667
0.969053 0.956423 -0.161465 -1.110642 1.369131 -2.547727 0.000000 0.000000 0.000000 -2.800096 0.480739 1.000123 -1.413316 0.073748 2.757701 2.006888 -3.285222 -5.058594 0.000000 0.000000 0.000000 -5.552719 0.624476 -3.214988 -1.900298 0.347690 0.603842 6.089870 14.476702 3.582825 0.000000 0.000000 0.000000 -3.126146 0.671428 -0.342784 1.875341 -0.343421 -1.237552 -0.573249 0.222571 5.489047 0.000000 0.000000 0.000000 0.347305 0.080691 -8.311611 0.000000 0.000000 0.000000 -0.443892 1.645364 0.734699 -0.480949 -0.532995 -6.489319 3.459036 2.168253 4.221440 0.000000 0.000000 0.000000 5.166138 -5.000642 1.292221 0.829678 0.515346 -3.652076 -7.622845 -3.802377 -0.101101 
0.966774 0.956303 -0.159270 -1.112078 1.267086 -2.731276 0.000000 0.000000 0.000000 -2.748086 0.550263 1.278681 -1.233035 0.054590 2.849248 2.054624 -3.185000 -5.095199 0.000000 0.000000 0.000000 -5.344924 0.601717 -3.059788 -1.949993 0.370580 0.795767 5.969783 14.651680 3.262668 0.000000 0.000000 0.000000 -3.267975 0.716403 -0.626570 1.698099 -0.308847 -0.998604 -0.603249 0.204105 5.595163 0.000000 0.000000 0.000000 0.286969 0.103985 -8.297110 0.000000 0.000000 0.000000 -0.362808 2.381193 1.117512 -0.316763 -0.443968 -5.395796 4.449218 2.833099 6.148102 0.000000 0.000000 0.000000 5.115232 -5.457375 1.504478 0.861096 0.471465 -3.310220 -7.283496 -3.726618 0.349638 
0.964894 0.956195 -0.157142 -0.995505 1.340387 -2.812050 0.000000 0.000000 0.000000 -2.807941 0.625596 1.539924 -1.102798 0.043728 2.688206 1.997761 -3.233222 -5.019142 0.000000 0.000000 0.000000 -5.267253 0.596290 -3.037621 -2.068770 0.416338 1.127087 5.774764 14.716807 2.870372 0.000000 0.000000 0.000000 -3.446953 0.771011 -0.963056 1.559612 -0.279190 -0.739758 -0.708917 0.138598 5.641209 0.000000 0.000000 0.000000 0.348490 0.076784 -8.279990 0.000000 0.000000 0.000000 -0.236488 2.994407 1.449846 0.071492 -0.371027 -4.292558 5.137584 3.253487 7.360100 0.000000 0.000000 0.000000 5.027621 -5.961217 1.748634 0.758544 0.432129 -3.061220 -7.232527 -3.862773 1.135431 
0.963670 0.956095 -0.155667 -0.893685 1.578444 -2.809806 0.000000 0.000000 0.000000 -2.872229 0.638283 1.564901 -0.998171 0.032946 2.687049 1.967750 -3.355955 -5.016075 0.000000 0.000000 0.000000 -5.204202 0.595856 -3.057142 -2.220001 0.465871 1.424454 5.560946 14.607834 2.541911 0.000000 0.000000 0.000000 -3.544454 0.803545 -1.207346 1.462344 -0.259286 -0.589384 -0.835577 0.073475 5.656075 0.000000 0.000000 0.000000 0.429024 0.043230 -8.230991 0.000000 0.000000 0.000000 -0.101622 3.331517 1.648304 0.467465 -0.321183 -3.373632 5.560585 3.498683 8.084406 0.000000 0.000000 0.000000 4.844061 -6.353754 1.969826 0.638920 0.396790 -2.848243 -7.484475 -4.191594 2.166636 
0.963429 0.955933 -0.155092 -0.860235 1.867655 -2.761865 0.000000 0.000000 0.000000 -2.912079 0.582631 1.343736 -0.922012 0.020646 2.937840 2.001998 -3.466826 -5.111922 0.000000 0.000000 0.000000 -5.155535 0.596192 -3.078156 -2.329069 0.495484 1.555848 5.412749 14.399787 2.387887 0.000000 0.000000 0.000000 -3.489214 0.797217 -1.289343 1.360942 -0.245124 -0.637524 -0.952525 0.076095 5.710817 0.000000 0.000000 0.000000 0.474182 0.028855 -8.231827 0.000000 0.000000 0.000000 -0.062112 3.440096 1.712307 0.804824 -0.315196 -2.997536 5.864820 3.681307 8.670516 0.000000 0.000000 0.000000 4.543895 -6.542519 2.131011 0.571243 0.362923 -2.624101 -7.860546 -4.569348 3.196633 
0.964321 0.955688 -0.155221 -0.855921 2.050381 -2.758680 0.000000 0.000000 0.000000 -2.973772 0.536094 1.150871 -0.896226 0.013596 3.177141 2.049516 -3.521347 -5.207662 0.000000 0.000000 0.000000 -5.190517 0.590865 -3.039173 -2.371776 0.500109 1.519061 5.376779 14.246874 2.409443 0.000000 0.000000 0.000000 -3.316089 0.758543 -1.209149 1.216906 -0.229154 -0.830105 -1.033017 0.176661 5.818084 0.000000 0.000000 0.000000 0.442228 0.048607 -8.256993 0.000000 0.000000 0.000000 -0.164600 3.481392 1.709920 1.093122 -0.350036 -3.184414 6.036488 3.777411 8.958132 0.000000 0.000000 0.000000 4.194494 -6.519213 2.209297 0.524900 0.331977 -2.412234 -8.192345 -4.871273 3.982899 
0.966262 0.955441 -0.155737 -0.810238 2.050550 -2.850494 0.000000 0.000000 0.000000 -3.118598 0.573501 1.244433 -0.939066 0.019725 3.077155 2.026309 -3.539037 -5.177184 0.000000 0.000000 0.000000 -5.350095 0.582532 -2.957494 -2.402966 0.501082 1.465060 5.427746 14.248127 2.503252 0.000000 0.000000 0.000000 -3.162036 0.719740 -1.075737 1.054469 -0.209580 -0.993469 -1.074697 0.330109 5.923527 0.000000 0.000000 0.000000 0.365968 0.084853 -8.263069 0.000000 0.000000 0.000000 -0.305408 3.517378 1.695358 1.313367 -0.408664 -3.770456 6.020012 3.732830 8.662218 0.000000 0.000000 0.000000 3.916329 -6.345979 2.200357 0.490702 0.312462 -2.279496 -8.458494 -5.070954 4.411317 
0.969015 0.955306 -0.156423 -0.667226 1.899098 -3.028593 0.000000 0.000000 0.000000 -3.394338 0.720033 1.695527 -1.048273 0.039885 2.529355 1.897692 -3.569806 -4.985049 0.000000 0.000000 0.000000 -5.653296 0.577424 -2.881969 -2.468710 0.517431 1.529523 5.510660 14.396682 2.571227 0.000000 0.000000 0.000000 -3.175797 0.717599 -1.012293 0.936653 -0.188760 -0.931667 -1.088198 0.454001 5.930159 0.000000 0.000000 0.000000 0.293009 0.114789 -8.211457 0.000000 0.000000 0.000000 -0.369565 3.479121 1.661458 1.457883 -0.468423 -4.465571 5.692067 3.480542 7.602874 0.000000 0.000000 0.000000 3.818346 -6.099281 2.112005 0.481393 0.311595 -2.276386 -8.703064 -5.191394 4.476181 
0.972355 0.955246 -0.157409 -0.437811 1.695962 -3.227926 0.000000 0.000000 0.000000 -3.789517 0.924789 2.306491 -1.188410 0.065439 1.719010 1.681802 -3.631758 -4.665088 0.000000 0.000000 0.000000 -6.069226 0.583381 -2.884792 -2.571262 0.552077 1.738032 5.583613 14.603707 2.586169 0.000000 0.000000 0.000000 -3.354467 0.752016 -1.020852 0.886512 -0.172702 -0.719570 -1.095047 0.507398 5.867433 0.000000 0.000000 0.000000 0.230644 0.138493 -8.188896 0.000000 0.000000 0.000000 -0.334711 3.295776 1.578428 1.563352 -0.527580 -5.205336 5.125350 3.065713 6.058371 0.000000 0.000000 0.000000 3.918266 -5.862737 1.979331 0.532422 0.335694 -2.438800 -8.929068 -5.245366 4.222993 
0.975954 0.955118 -0.159150 -0.242599 1.596259 -3.323228 0.000000 0.000000 0.000000 -4.153398 1.057070 2.653559 -1.337475 0.087138 1.089281 1.491741 -3.721247 -4.396674 0.000000 0.000000 0.000000 -6.448518 0.609155 -3.071800 -2.686327 0.598043 2.047755 5.598776 14.673556 2.573102 0.000000 0.000000 0.000000 -3.583964 0.795743 -1.010241 0.917888 -0.175145 -0.654670 -1.086032 0.486945 5.837297 0.000000 0.000000 0.000000 0.167760 0.164868 -8.255228 0.000000 0.000000 0.000000 -0.200064 2.904164 1.414133 1.626071 -0.587076 -5.998900 4.415265 2.559949 4.398587 0.000000 0.000000 0.000000 4.103230 -5.677947 1.850133 0.711054 0.380360 -2.705522 -9.079799 -5.214145 3.676880 
0.979429 0.954754 -0.161846 -0.219893 1.706812 -3.240985 0.000000 0.000000 0.000000 -4.318210 1.011713 2.434398 -1.472210 0.099328 1.005649 1.444042 -3.823086 -4.361939 0.000000 0.000000 0.000000 -6.622578 0.653806 -3.465462 -2.808711 0.649076 2.391921 5.545547 14.463184 2.591683 0.000000 0.000000 0.000000 -3.713839 0.814603 -0.885302 1.025850 -0.203913 -0.971270 -1.059819 0.417729 5.915109 0.000000 0.000000 0.000000 0.109798 0.194139 -8.409621 0.000000 0.000000 0.000000 -0.004270 2.345346 1.178453 1.686077 -0.651158 -6.874202 3.756839 2.075922 2.917329 0.000000 0.000000 0.000000 4.241893 -5.560356 1.763841 1.039828 0.436135 -2.990822 -9.105612 -5.081506 2.877307 
0.982670 0.954214 -0.164870 -0.338210 1.940019 -3.090900 0.000000 0.000000 0.000000 -4.332604 0.856235 1.876513 -1.569789 0.103323 1.343010 1.521354 -3.902758 -4.518077 0.000000 0.000000 0.000000 -6.640172 0.697746 -3.875213 -2.919230 0.691749 2.654467 5.491655 14.101600 2.696955 0.000000 0.000000 0.000000 -3.710118 0.802711 -0.672670 1.156744 -0.243620 -1.508731 -1.028761 0.345779 6.064652 0.000000 0.000000 0.000000 0.062421 0.220621 -8.559294 0.000000 0.000000 0.000000 0.177743 1.786902 0.937531 1.851956 -0.717107 -7.745101 3.258716 1.654921 1.559823 0.000000 0.000000 0.000000 4.297185 -5.491304 1.720598 1.422709 0.491699 -3.245988 -9.007419 -4.865791 1.940645 
0.985830 0.953725 -0.167353 -0.438775 2.102835 -3.040589 0.000000 0.000000 0.000000 -4.377568 0.747392 1.476553 -1.650246 0.106733 1.655449 1.608156 -3.922850 -4.663804 0.000000 0.000000 0.000000 -6.702975 0.720550 -4.091649 -3.000773 0.716847 2.771561 5.504577 13.859392 2.860123 0.000000 0.000000 0.000000 -3.664810 0.783687 -0.494605 1.261188 -0.272919 -1.891164 -1.008421 0.300307 6.174737 0.000000 0.000000 0.000000 0.030974 0.236152 -8.573713 0.000000 0.000000 0.000000 0.316983 1.389907 0.766871 2.194879 -0.772738 -8.435727 2.923923 1.281228 0.167777 0.000000 0.000000 0.000000 4.316400 -5.429083 1.688783 1.697076 0.536207 -3.456086 -8.840166 -4.624986 1.065537 
0.988945 0.953393 -0.169126 -0.460052 2.119971 -3.108675 0.000000 0.000000 0.000000 -4.505588 0.732836 1.387124 -1.757989 0.115606 1.722260 1.636505 -3.871559 -4.685597 0.000000 0.000000 0.000000 -6.876327 0.723615 -4.122592 -3.045017 0.724390 2.764745 5.587242 13.825337 3.034016 0.000000 0.000000 0.000000 -3.645952 0.775497 -0.425690 1.354848 -0.290477 -1.999993 -0.982830 0.267646 6.216872 0.000000 0.000000 0.000000 0.021997 0.235475 -8.426403 0.000000 0.000000 0.000000 0.455746 1.159532 0.679154 2.642620 -0.804374 -8.772013 2.723528 0.952585 -1.231874 0.000000 0.000000 0.000000 4.333060 -5.360578 1.653549 1.738231 0.565722 -3.647559 -8.694513 -4.441376 0.461508 
0.991790 0.953206 -0.170578 -0.466051 2.046381 -3.211317 0.000000 0.000000 0.000000 -4.599531 0.757436 1.447514 -1.935130 0.132335 1.626382 1.625728 -3.770182 -4.623088 0.000000 0.000000 0.000000 -7.060173 0.721938 -4.104576 -3.060082 0.721471 2.699951 5.707038 13.896876 3.214920 0.000000 0.000000 0.000000 -3.648005 0.775235 -0.422967 1.479522 -0.309236 -2.015386 -0.924581 0.215509 6.260327 0.000000 0.000000 0.000000 0.071456 0.205574 -8.199580 0.000000 0.000000 0.000000 0.635614 1.001222 0.635588 3.075187 -0.814401 -8.779316 2.577537 0.711754 -2.233978 0.000000 0.000000 0.000000 4.357607 -5.310008 1.623049 1.512103 0.577185 -3.823035 -8.632253 -4.362645 0.208349 
0.994079 0.953153 -0.171977 -0.512781 1.920440 -3.307160 0.000000 0.000000 0.000000 -4.599599 0.781530 1.534934 -2.142694 0.151963 1.476329 1.611499 -3.623307 -4.535149 0.000000 0.000000 0.000000 -7.165932 0.722870 -4.107348 -3.057193 0.713104 2.611113 5.856213 14.005950 3.426864 0.000000 0.000000 0.000000 -3.661750 0.777260 -0.413003 1.644474 -0.334496 -2.058005 -0.835468 0.121843 6.317384 0.000000 0.000000 0.000000 0.228419 0.126602 -7.952257 0.000000 0.000000 0.000000 0.838264 0.835146 0.591552 3.419530 -0.812088 -8.584175 2.498315 0.647474 -2.397265 0.000000 0.000000 0.000000 4.397078 -5.316207 1.613281 1.095453 0.570250 -3.955555 -8.652799 -4.381307 0.255268 
